<?xml version="1.0" encoding="UTF-8" standalone="no"?>
<!-- Created with Inkscape (http://www.inkscape.org/) -->

<svg
   width="100mm"
   height="100mm"
   viewBox="0 0 100 100"
   version="1.1"
   id="svg1"
   xmlns="http://www.w3.org/2000/svg"
   xmlns:svg="http://www.w3.org/2000/svg">
  <defs
     id="defs1" />
  <g
     id="layer1">
    <g
       id="layer4"
       transform="matrix(6.2328868,0,0,7.2565686,-407.79784,-266.29831)"
       style="fill:#ffffff;stroke-width:0.148693">
      <path
         style="fill:#ffffff;stroke-width:0.189397"
         d="m 3.8902532,49.698816 c 0.8566335,-0.01915 1.713267,-0.03831 2.6067576,-0.05577 0.8934907,-0.01747 1.8238385,-0.03325 2.6974647,-0.08871 0.8736265,-0.05546 1.6905305,-0.150604 2.5465355,-0.204107 0.856005,-0.0535 1.75111,-0.06537 2.622759,-0.104987 0.871649,-0.03962 1.71984,-0.106996 2.587558,-0.134738 0.867719,-0.02774 1.754963,-0.01585 2.640261,-0.01188 0.885297,0.004 1.768646,1.2e-5 2.597192,-0.01194 0.828546,-0.01195 1.602287,-0.03189 2.073834,-0.04328 0.471547,-0.01139 0.640898,-0.01422 0.704023,0.02084 0.06312,0.03506 0.02002,0.108011 -1.568931,3.304975 -1.588953,3.196964 -4.72357,9.517563 -7.858279,15.838347"
         id="path1-1"
         transform="matrix(0.00809865,0.16261735,0.2650916,-0.00484942,62.134078,41.260713)" />
      <path
         style="fill:#ffffff;stroke-width:0.192484"
         d="m 23.38923,81.622169 c 2.441381,-2.613478 4.882761,-5.226955 7.324143,-7.840435"
         id="path2-7"
         transform="matrix(-0.26247535,0,0,0.15915592,81.252786,34.452049)" />
      <rect
         style="fill:#ffffff;stroke-width:0.0393416"
         id="rect9-1"
         width="11.104865"
         height="1.4485369"
         x="-77.866371"
         y="42.657406"
         rx="0.31582361"
         ry="0.24590731"
         transform="scale(-1,1)" />
    </g>
  </g>
</svg>
